<svg width="259" height="160" viewBox="0 0 259 160" fill="none" xmlns="http://www.w3.org/2000/svg">
<rect x="41" width="117" height="28" rx="14" fill="#D9D9D9" fill-opacity="0.3"/>
<rect y="28" width="117" height="18" rx="9" fill="#D9D9D9" fill-opacity="0.3"/>
<rect y="86" width="78" height="18" rx="9" fill="#D9D9D9" fill-opacity="0.3"/>
<rect x="169" y="141" width="78" height="18" rx="9" fill="#D9D9D9" fill-opacity="0.3"/>
<rect x="181" y="91" width="78" height="18" rx="9" fill="#D9D9D9" fill-opacity="0.3"/>
<circle cx="133" cy="91" r="67.5" fill="white" stroke="#6F6F6F" stroke-width="3"/>
<path d="M181 120.5C181 140.658 159.734 157 133.5 157C122.496 157 112.366 154.125 104.313 149.299C93.1675 142.619 86 132.203 86 120.5C86 100.342 107.266 84 133.5 84C159.734 84 181 100.342 181 120.5Z" fill="#D9D9D9"/>
<circle cx="112" cy="84" r="9" fill="#6D6868"/>
<circle cx="149" cy="84" r="9" fill="#6D6868"/>
<path d="M112.5 133.767C119.5 110.267 142 107.267 148.5 133.767" stroke="#6D6767" stroke-width="4" stroke-linecap="round"/>
</svg>
