<svg width="216" height="196" viewBox="0 0 216 196" fill="none" xmlns="http://www.w3.org/2000/svg">
<g filter="url(#filter0_d_115_2648)">
<rect x="8" y="4" width="200" height="180" rx="10" fill="white"/>
</g>
<path d="M108.621 4H198C203.523 4 208 8.47715 208 14V174C208 179.523 203.523 184 198 184H108.621V4Z" fill="#F8F8F8"/>
<path d="M108.621 158.379H160.197V115.022H184.728V104.511H193.533V53.9269H152.65V22.394H108.621" stroke="#DBDBDB" stroke-linecap="round"/>
<path d="M148.118 176.117C148.118 175.841 147.894 175.617 147.618 175.617C147.342 175.617 147.118 175.841 147.118 176.117H148.118ZM144.951 159.036C144.951 160.509 146.145 161.703 147.618 161.703C149.091 161.703 150.285 160.509 150.285 159.036C150.285 157.564 149.091 156.37 147.618 156.37C146.145 156.37 144.951 157.564 144.951 159.036ZM147.118 176.117V184H148.118V176.117H147.118ZM148.118 184V159.036H147.118V184H148.118Z" fill="#ECBFBF"/>
<path d="M131.317 67.8796C131.041 67.8796 130.817 68.1034 130.817 68.3796C130.817 68.6557 131.041 68.8796 131.317 68.8796V67.8796ZM168.852 53.927C168.852 55.3998 170.046 56.5937 171.519 56.5937C172.992 56.5937 174.186 55.3998 174.186 53.927C174.186 52.4542 172.992 51.2603 171.519 51.2603C170.046 51.2603 168.852 52.4542 168.852 53.927ZM171.519 68.3796V68.8796H172.019V68.3796H171.519ZM131.317 68.8796H171.519V67.8796H131.317V68.8796ZM172.019 68.3796V53.927H171.019V68.3796H172.019Z" fill="#C6C6FF"/>
<path d="M208 130.945C208.276 130.945 208.5 131.169 208.5 131.445C208.5 131.721 208.276 131.945 208 131.945V130.945ZM186.765 116.993C186.765 118.466 185.572 119.659 184.099 119.659C182.626 119.659 181.432 118.466 181.432 116.993C181.432 115.52 182.626 114.326 184.099 114.326C185.572 114.326 186.765 115.52 186.765 116.993ZM184.099 131.445V131.945H183.599V131.445H184.099ZM208 131.945H184.099V130.945H208V131.945ZM183.599 131.445V116.993H184.599V131.445H183.599Z" fill="#97CEF5"/>
<path d="M208 157.722L177.809 157.722L177.809 166.919" stroke="#DBDBDB" stroke-linecap="round"/>
<path d="M178.309 184C178.309 184.276 178.085 184.5 177.809 184.5C177.533 184.5 177.309 184.276 177.309 184L178.309 184ZM180.476 169.547C180.476 171.02 179.282 172.214 177.809 172.214C176.336 172.214 175.142 171.02 175.142 169.547C175.142 168.074 176.336 166.881 177.809 166.881C179.282 166.881 180.476 168.074 180.476 169.547ZM177.309 184L177.309 169.547L178.309 169.547L178.309 184L177.309 184Z" fill="#DBDBDB"/>
<path d="M176.551 3.99986L176.551 23.7079L187.558 23.7079" stroke="#DBDBDB" stroke-linecap="round"/>
<path d="M208 23.2079C208.276 23.2079 208.5 23.4317 208.5 23.7079C208.5 23.984 208.276 24.2079 208 24.2079L208 23.2079ZM190.703 21.0412C192.176 21.0412 193.37 22.2351 193.37 23.7079C193.37 25.1806 192.176 26.3746 190.703 26.3746C189.23 26.3746 188.036 25.1806 188.036 23.7079C188.036 22.2351 189.23 21.0412 190.703 21.0412ZM208 24.2079L190.703 24.2079L190.703 23.2079L208 23.2079L208 24.2079Z" fill="#DBDBDB"/>
<path d="M107.711 140.264V47.7089L68.3322 75.4753V114.811L107.711 140.264Z" fill="#BBBABA"/>
<path d="M107.711 140.264V47.7089L147.09 75.4753V114.811L107.711 140.264Z" fill="#353131"/>
<ellipse cx="107.711" cy="93.986" rx="13.1263" ry="13.8832" fill="white"/>
<defs>
<filter id="filter0_d_115_2648" x="0" y="0" width="216" height="196" filterUnits="userSpaceOnUse" color-interpolation-filters="sRGB">
<feFlood flood-opacity="0" result="BackgroundImageFix"/>
<feColorMatrix in="SourceAlpha" type="matrix" values="0 0 0 0 0 0 0 0 0 0 0 0 0 0 0 0 0 0 127 0" result="hardAlpha"/>
<feOffset dy="4"/>
<feGaussianBlur stdDeviation="4"/>
<feComposite in2="hardAlpha" operator="out"/>
<feColorMatrix type="matrix" values="0 0 0 0 0 0 0 0 0 0 0 0 0 0 0 0 0 0 0.1 0"/>
<feBlend mode="normal" in2="BackgroundImageFix" result="effect1_dropShadow_115_2648"/>
<feBlend mode="normal" in="SourceGraphic" in2="effect1_dropShadow_115_2648" result="shape"/>
</filter>
</defs>
</svg>
