<svg width="268" height="262" viewBox="0 0 268 262" fill="none" xmlns="http://www.w3.org/2000/svg">
<path d="M134 0L250.047 65.5V196.5L134 262L17.9526 196.5V65.5L134 0Z" fill="url(#paint0_linear_144_4818)" fill-opacity="0.3"/>
<path d="M134 20L230.129 75.5V186.5L134 242L37.8712 186.5V75.5L134 20Z" fill="url(#paint1_linear_144_4818)" fill-opacity="0.5"/>
<path d="M134 47L206.746 89V173L134 215L61.2539 173V89L134 47Z" fill="#E2E2E2"/>
<path fill-rule="evenodd" clip-rule="evenodd" d="M127.2 110.4C117.922 110.4 110.4 117.922 110.4 127.2C110.4 136.478 117.922 144 127.2 144C136.478 144 144 136.478 144 127.2C144 117.922 136.478 110.4 127.2 110.4ZM102 127.2C102 113.282 113.282 102 127.2 102C141.118 102 152.4 113.282 152.4 127.2C152.4 132.642 150.675 137.682 147.741 141.801L167.97 162.03C169.61 163.67 169.61 166.33 167.97 167.97C166.33 169.61 163.67 169.61 162.03 167.97L141.801 147.741C137.682 150.675 132.642 152.4 127.2 152.4C113.282 152.4 102 141.118 102 127.2Z" fill="#222222"/>
<defs>
<linearGradient id="paint0_linear_144_4818" x1="134" y1="0" x2="134" y2="262" gradientUnits="userSpaceOnUse">
<stop stop-color="#CFCFCF"/>
<stop offset="1" stop-color="#D2D7D9" stop-opacity="0"/>
</linearGradient>
<linearGradient id="paint1_linear_144_4818" x1="134" y1="20" x2="134" y2="242" gradientUnits="userSpaceOnUse">
<stop stop-color="#CFCFCF"/>
<stop offset="1" stop-color="#E2E2E2" stop-opacity="0"/>
</linearGradient>
</defs>
</svg>
