<svg width="18" height="18" viewBox="0 0 18 18" fill="none" xmlns="http://www.w3.org/2000/svg">
<g clip-path="url(#clip0_1_11395)">
<path d="M7.44242 14.1562C5.8316 14.1562 4.52051 12.8451 4.52051 11.2343V4.1875H3.31742C2.27447 4.1875 1.42676 5.03508 1.42676 6.07804V15.3593C1.42676 16.4022 2.27447 17.25 3.31742 17.25H11.9111C12.954 17.25 13.8018 16.4022 13.8018 15.3593V14.1562H7.44242Z" fill="#7D7E93"/>
<path d="M16.5517 2.64067C16.5517 1.59633 15.7054 0.75 14.6612 0.75H7.44242C6.39808 0.75 5.55176 1.59633 5.55176 2.64067V11.2343C5.55176 12.2787 6.39808 13.125 7.44242 13.125H14.6612C15.7054 13.125 16.5517 12.2787 16.5517 11.2343V2.64067Z" fill="#9B9CA8"/>
</g>
<defs>
<clipPath id="clip0_1_11395">
<rect width="16.5" height="16.5" fill="white" transform="translate(0.75 0.75)"/>
</clipPath>
</defs>
</svg>
