<svg width="26" height="26" viewBox="0 0 26 26" fill="none" xmlns="http://www.w3.org/2000/svg">
<path opacity="0.4" fill-rule="evenodd" clip-rule="evenodd" d="M9.8198 5.79328H16.2184V4.30347H9.8198V5.79328ZM8.36422 4.36465V4.37206C7.86474 4.41749 7.37061 4.51669 6.88989 4.66595V4.66038C6.8756 4.6664 6.86214 4.67102 6.84923 4.67546L6.84923 4.67546C6.83227 4.68129 6.81626 4.68679 6.80053 4.69469C6.76211 4.70396 6.72458 4.71786 6.68884 4.73548C6.5834 4.76978 6.47797 4.81057 6.37878 4.85229C6.35242 4.86249 6.32606 4.87431 6.2997 4.88613L6.2997 4.88613C6.27334 4.89795 6.24699 4.90977 6.22063 4.91997C6.18444 4.93712 6.14669 4.95589 6.10893 4.97466C6.07118 4.99344 6.03343 5.01221 5.99724 5.02936L5.81854 5.13227C5.78549 5.14912 5.75491 5.16888 5.7237 5.18905L5.7237 5.18905C5.70511 5.20106 5.68631 5.21321 5.66663 5.22497C5.39768 5.39834 5.14838 5.60137 4.92321 5.83221L4.90981 5.84611C4.88023 5.88059 4.85078 5.91404 4.82173 5.94704C4.77267 6.00277 4.72474 6.05721 4.67928 6.11311L4.66587 6.12609C3.93496 7.13475 3.56861 8.37796 3.63205 9.63785V10.0374H5.07511V9.63414C5.07511 7.87826 5.63447 6.78524 6.87916 6.22529C7.35453 6.02411 7.85669 5.89988 8.3678 5.85446H8.3812V4.37114L8.36422 4.36465ZM21.3312 6.10755L21.3375 6.12053C22.0675 7.13011 22.4321 8.37425 22.3677 9.63414V10.0374H20.9256V9.62395C20.9559 8.88043 20.8067 8.14063 20.4904 7.47221C20.1866 6.9002 19.7005 6.45613 19.1135 6.21509C18.6461 6.01392 18.1511 5.88876 17.6463 5.84426V4.36836C18.1458 4.41471 18.6399 4.51298 19.1215 4.66224V4.65482C19.1486 4.6671 19.1692 4.6744 19.2047 4.68693L19.2109 4.68912C19.2273 4.69494 19.2427 4.70076 19.2578 4.7065C19.2789 4.7145 19.2997 4.72236 19.3226 4.72992C19.4213 4.76233 19.5137 4.80053 19.6088 4.83984L19.6255 4.84673C19.6693 4.86213 19.7107 4.88124 19.7479 4.89846C19.76 4.90404 19.7716 4.90942 19.7827 4.9144C19.8614 4.94871 19.9418 4.9895 20.0061 5.0238C20.049 5.04606 20.0908 5.06989 20.13 5.09224C20.1512 5.10432 20.1716 5.11597 20.1911 5.1267C20.2231 5.14438 20.2509 5.1633 20.2777 5.18149C20.2972 5.19477 20.3162 5.20767 20.3358 5.21941C20.6057 5.3937 20.8577 5.59766 21.0855 5.82665L21.0935 5.84055C21.1775 5.92492 21.2571 6.01392 21.3312 6.10755Z" fill="#FAFAFA"/>
<path d="M17.6875 3.33017V6.61302C17.6875 7.02665 17.3519 7.36167 16.9375 7.36167C16.5232 7.36167 16.1875 7.02665 16.1875 6.61302V3.33766C16.1838 2.92403 16.5175 2.5862 16.9319 2.58339C17.3463 2.58058 17.6847 2.9128 17.6875 3.32643V3.33017Z" fill="#FAFAFA"/>
<path d="M9.8125 3.34202V6.61675C9.8125 7.03217 9.47647 7.369 9.06203 7.369C8.6476 7.369 8.3125 7.03217 8.3125 6.61675V3.34202C8.3125 2.92659 8.6476 2.5907 9.06203 2.5907C9.47647 2.5907 9.8125 2.92659 9.8125 3.34202Z" fill="#FAFAFA"/>
<path fill-rule="evenodd" clip-rule="evenodd" d="M3.625 18.1148V10.0375H22.375V18.1148C22.375 21.6371 20.4079 23.4167 16.5095 23.4167H9.48158C5.5921 23.4167 3.625 21.6371 3.625 18.1148ZM7.85428 14.528C7.85428 15.0167 8.23876 15.4131 8.71265 15.4131C9.19548 15.4131 9.57996 15.0074 9.57102 14.5187C9.57102 14.03 9.18654 13.6335 8.72159 13.6335H8.71265C8.23876 13.6335 7.85428 14.0393 7.85428 14.528ZM12.1372 14.528C12.1372 15.0167 12.5306 15.4131 13.0045 15.4131C13.4784 15.4131 13.8629 15.0167 13.8629 14.5187C13.8629 14.0393 13.4784 13.6428 13.0045 13.6335H12.9955C12.5216 13.6428 12.1372 14.0393 12.1372 14.528ZM17.2874 15.4132C16.8135 15.4132 16.429 15.0167 16.429 14.528C16.429 14.0393 16.8046 13.6428 17.2874 13.6428C17.7613 13.6428 18.1458 14.0393 18.1458 14.528C18.1458 15.0167 17.7613 15.4132 17.2874 15.4132ZM17.2874 19.1936C16.8135 19.1936 16.429 18.7971 16.4201 18.3084C16.4201 17.8197 16.8046 17.4233 17.2785 17.4233H17.2874C17.7613 17.4233 18.1458 17.8197 18.1458 18.3084C18.1458 18.7971 17.7613 19.1936 17.2874 19.1936ZM13.0045 19.1936C12.5306 19.1936 12.1372 18.7971 12.1372 18.3084C12.1372 17.8197 12.5216 17.4233 12.9955 17.414H13.0045C13.4784 17.4233 13.8539 17.8197 13.8629 18.2992C13.8629 18.7971 13.4784 19.1936 13.0045 19.1936ZM8.71263 19.1936C8.23874 19.1936 7.85426 18.7971 7.85426 18.3084C7.84532 17.8197 8.22979 17.414 8.71263 17.414C9.18652 17.414 9.571 17.8105 9.571 18.2992C9.571 18.7879 9.18652 19.1936 8.71263 19.1936Z" fill="#FAFAFA"/>
</svg>
