<svg width="26" height="26" viewBox="0 0 26 26" fill="none" xmlns="http://www.w3.org/2000/svg">
<path d="M12.9999 2.06335C15.4863 2.06335 17.8709 3.05107 19.6291 4.80923C21.3872 6.56738 22.3749 8.95195 22.3749 11.4384C22.3749 15.918 19.3515 20.0415 13.4187 23.8165C13.2935 23.896 13.1482 23.9382 12.9999 23.9382C12.8516 23.9382 12.7064 23.896 12.5812 23.8165C6.64838 20.0415 3.62494 15.918 3.62494 11.4384C3.62494 8.95195 4.61266 6.56738 6.37081 4.80923C8.12896 3.05107 10.5135 2.06335 12.9999 2.06335ZM12.9999 8.31335C12.1711 8.31335 11.3763 8.64259 10.7902 9.22865C10.2042 9.8147 9.87494 10.6096 9.87494 11.4384C9.87494 12.2672 10.2042 13.062 10.7902 13.6481C11.3763 14.2341 12.1711 14.5634 12.9999 14.5634C13.8287 14.5634 14.6236 14.2341 15.2096 13.6481C15.7957 13.062 16.1249 12.2672 16.1249 11.4384C16.1249 10.6096 15.7957 9.8147 15.2096 9.22865C14.6236 8.64259 13.8287 8.31335 12.9999 8.31335Z" fill="white"/>
</svg>
