<svg width="24" height="25" viewBox="0 0 24 25" fill="none" xmlns="http://www.w3.org/2000/svg">
<path fill-rule="evenodd" clip-rule="evenodd" d="M20.16 12.6932C20.16 12.0905 20.1059 11.5109 20.0055 10.9546H12V14.2425H16.5746C16.3775 15.305 15.7786 16.2053 14.8784 16.808V18.9407H17.6255C19.2327 17.4609 20.16 15.2819 20.16 12.6932Z" fill="#4285F4"/>
<path fill-rule="evenodd" clip-rule="evenodd" d="M12 21C14.295 21 16.2191 20.2389 17.6254 18.9407L14.8784 16.808C14.1173 17.318 13.1436 17.6193 12 17.6193C9.78611 17.6193 7.91224 16.1241 7.24383 14.115H4.40405V16.3173C5.80269 19.0953 8.67724 21 12 21Z" fill="#34A853"/>
<path fill-rule="evenodd" clip-rule="evenodd" d="M7.24387 14.1151C7.07387 13.605 6.97728 13.0603 6.97728 12.5C6.97728 11.9398 7.07387 11.395 7.24387 10.885V8.68277H4.40409C3.82841 9.83027 3.5 11.1285 3.5 12.5C3.5 13.8716 3.82841 15.1698 4.40409 16.3173L7.24387 14.1151Z" fill="#FBBC05"/>
<path fill-rule="evenodd" clip-rule="evenodd" d="M12 7.38072C13.2479 7.38072 14.3684 7.80958 15.2493 8.65186L17.6873 6.2139C16.2152 4.8423 14.2911 4.00003 12 4.00003C8.67724 4.00003 5.80269 5.90481 4.40405 8.68277L7.24383 10.885C7.91224 8.87595 9.78611 7.38072 12 7.38072Z" fill="#EA4335"/>
</svg>
