<svg width="25" height="25" viewBox="0 0 25 25" fill="none" xmlns="http://www.w3.org/2000/svg">
<path d="M13.2499 8.33337C13.2499 7.91916 12.9141 7.58337 12.4999 7.58337C12.0857 7.58337 11.7499 7.91916 11.7499 8.33337H13.2499ZM11.7499 12.5C11.7499 12.9143 12.0857 13.25 12.4999 13.25C12.9141 13.25 13.2499 12.9143 13.2499 12.5H11.7499ZM12.4999 15.9167C12.0857 15.9167 11.7499 16.2525 11.7499 16.6667C11.7499 17.0809 12.0857 17.4167 12.4999 17.4167V15.9167ZM12.5103 17.4167C12.9245 17.4167 13.2603 17.0809 13.2603 16.6667C13.2603 16.2525 12.9245 15.9167 12.5103 15.9167V17.4167ZM22.1666 12.5C22.1666 17.8388 17.8387 22.1667 12.4999 22.1667V23.6667C18.6671 23.6667 23.6666 18.6672 23.6666 12.5H22.1666ZM12.4999 22.1667C7.16117 22.1667 2.83325 17.8388 2.83325 12.5H1.33325C1.33325 18.6672 6.33274 23.6667 12.4999 23.6667V22.1667ZM2.83325 12.5C2.83325 7.16129 7.16117 2.83337 12.4999 2.83337V1.33337C6.33274 1.33337 1.33325 6.33286 1.33325 12.5H2.83325ZM12.4999 2.83337C17.8387 2.83337 22.1666 7.16129 22.1666 12.5H23.6666C23.6666 6.33286 18.6671 1.33337 12.4999 1.33337V2.83337ZM11.7499 8.33337V12.5H13.2499V8.33337H11.7499ZM12.4999 17.4167H12.5103V15.9167H12.4999V17.4167Z" fill="#1B7EF5"/>
</svg>
