<svg width="16" height="18" viewBox="0 0 16 18" fill="none" xmlns="http://www.w3.org/2000/svg">
<path d="M8 0.250732C9.98912 0.250732 11.8968 1.04091 13.3033 2.44743C14.7098 3.85395 15.5 5.76161 15.5 7.75073C15.5 11.3345 13.0812 14.6332 8.335 17.6532C8.23483 17.7168 8.11864 17.7506 8 17.7506C7.88135 17.7506 7.76516 17.7168 7.665 17.6532C2.91875 14.6332 0.5 11.3345 0.5 7.75073C0.5 5.76161 1.29018 3.85395 2.6967 2.44743C4.10322 1.04091 6.01087 0.250732 8 0.250732ZM8 5.25073C7.33696 5.25073 6.70107 5.51412 6.23223 5.98296C5.76339 6.45181 5.5 7.08769 5.5 7.75073C5.5 8.41377 5.76339 9.04966 6.23223 9.5185C6.70107 9.98734 7.33696 10.2507 8 10.2507C8.66304 10.2507 9.29892 9.98734 9.76776 9.5185C10.2366 9.04966 10.5 8.41377 10.5 7.75073C10.5 7.08769 10.2366 6.45181 9.76776 5.98296C9.29892 5.51412 8.66304 5.25073 8 5.25073Z" fill="white"/>
</svg>
