<svg width="24" height="25" viewBox="0 0 24 25" fill="none" xmlns="http://www.w3.org/2000/svg">
<path d="M11.5 21.5C16.7467 21.5 21 17.2467 21 12C21 6.75329 16.7467 2.5 11.5 2.5C6.25329 2.5 2 6.75329 2 12C2 17.2467 6.25329 21.5 11.5 21.5Z" fill="#FAFAFA"/>
<path d="M21.3001 22.5C21.1201 22.5 20.9401 22.43 20.8101 22.3L18.9501 20.44C18.6801 20.17 18.6801 19.73 18.9501 19.45C19.2201 19.18 19.6601 19.18 19.9401 19.45L21.8001 21.31C22.0701 21.58 22.0701 22.02 21.8001 22.3C21.6601 22.43 21.4801 22.5 21.3001 22.5Z" fill="#FAFAFA"/>
</svg>
