<svg width="21" height="17" viewBox="0 0 21 17" fill="none" xmlns="http://www.w3.org/2000/svg">
<path fill-rule="evenodd" clip-rule="evenodd" d="M0.500001 2.5C0.500001 1.39493 1.3 0.5 2.28571 0.5H18.7143C19.7 0.5 20.5 1.396 20.5 2.5V5.72773C20.5001 5.86825 20.4671 6.00631 20.4044 6.12802C20.3417 6.24974 20.2515 6.35081 20.1429 6.42107C19.8167 6.63143 19.5457 6.93435 19.3573 7.29932C19.1689 7.6643 19.0697 8.07843 19.0697 8.5C19.0697 8.92158 19.1689 9.33571 19.3573 9.70068C19.5457 10.0656 19.8167 10.3686 20.1429 10.5789C20.2515 10.6492 20.3417 10.7503 20.4044 10.872C20.4671 10.9937 20.5001 11.1318 20.5 11.2723V14.5C20.5 15.604 19.7 16.5 18.7143 16.5H2.28571C1.81211 16.5 1.35791 16.2893 1.02302 15.9142C0.688138 15.5391 0.500001 15.0304 0.500001 14.5V11.2723C0.499824 11.1319 0.532646 10.9939 0.59517 10.8722C0.657693 10.7505 0.747716 10.6493 0.856191 10.5789C1.18239 10.3686 1.45333 10.0656 1.64172 9.70068C1.83011 9.33571 1.92931 8.92158 1.92931 8.5C1.92931 8.07843 1.83011 7.6643 1.64172 7.29932C1.45333 6.93435 1.18239 6.63143 0.856191 6.42107C0.747716 6.35067 0.657693 6.24954 0.59517 6.12784C0.532646 6.00614 0.499824 5.86815 0.500001 5.72773V2.5ZM14.7857 1.3C14.9752 1.3 15.1568 1.38429 15.2908 1.53431C15.4247 1.68434 15.5 1.88783 15.5 2.1V2.9C15.5 3.11217 15.4247 3.31566 15.2908 3.46569C15.1568 3.61571 14.9752 3.7 14.7857 3.7C14.5963 3.7 14.4146 3.61571 14.2806 3.46569C14.1467 3.31566 14.0714 3.11217 14.0714 2.9V2.1C14.0714 1.88783 14.1467 1.68434 14.2806 1.53431C14.4146 1.38429 14.5963 1.3 14.7857 1.3ZM15.5 6.1C15.5 5.88783 15.4247 5.68434 15.2908 5.53432C15.1568 5.38429 14.9752 5.3 14.7857 5.3C14.5963 5.3 14.4146 5.38429 14.2806 5.53432C14.1467 5.68434 14.0714 5.88783 14.0714 6.1V6.9C14.0714 7.11217 14.1467 7.31566 14.2806 7.46569C14.4146 7.61571 14.5963 7.7 14.7857 7.7C14.9752 7.7 15.1568 7.61571 15.2908 7.46569C15.4247 7.31566 15.5 7.11217 15.5 6.9V6.1ZM14.7857 9.3C14.9752 9.3 15.1568 9.38429 15.2908 9.53432C15.4247 9.68434 15.5 9.88783 15.5 10.1V10.9C15.5 11.1122 15.4247 11.3157 15.2908 11.4657C15.1568 11.6157 14.9752 11.7 14.7857 11.7C14.5963 11.7 14.4146 11.6157 14.2806 11.4657C14.1467 11.3157 14.0714 11.1122 14.0714 10.9V10.1C14.0714 9.88783 14.1467 9.68434 14.2806 9.53432C14.4146 9.38429 14.5963 9.3 14.7857 9.3ZM15.5 14.1C15.5 13.8878 15.4247 13.6843 15.2908 13.5343C15.1568 13.3843 14.9752 13.3 14.7857 13.3C14.5963 13.3 14.4146 13.3843 14.2806 13.5343C14.1467 13.6843 14.0714 13.8878 14.0714 14.1V14.9C14.0714 15.1122 14.1467 15.3157 14.2806 15.4657C14.4146 15.6157 14.5963 15.7 14.7857 15.7C14.9752 15.7 15.1568 15.6157 15.2908 15.4657C15.4247 15.3157 15.5 15.1122 15.5 14.9V14.1ZM4.78572 8.5C4.78572 8.28783 4.86097 8.08434 4.99492 7.93432C5.12888 7.78429 5.31056 7.7 5.5 7.7H10.5C10.6894 7.7 10.8711 7.78429 11.0051 7.93432C11.139 8.08434 11.2143 8.28783 11.2143 8.5C11.2143 8.71217 11.139 8.91566 11.0051 9.06569C10.8711 9.21571 10.6894 9.3 10.5 9.3H5.5C5.31056 9.3 5.12888 9.21571 4.99492 9.06569C4.86097 8.91566 4.78572 8.71217 4.78572 8.5ZM5.5 10.9C5.31056 10.9 5.12888 10.9843 4.99492 11.1343C4.86097 11.2843 4.78572 11.4878 4.78572 11.7C4.78572 11.9122 4.86097 12.1157 4.99492 12.2657C5.12888 12.4157 5.31056 12.5 5.5 12.5H8.35714C8.54658 12.5 8.72826 12.4157 8.86222 12.2657C8.99617 12.1157 9.07143 11.9122 9.07143 11.7C9.07143 11.4878 8.99617 11.2843 8.86222 11.1343C8.72826 10.9843 8.54658 10.9 8.35714 10.9H5.5Z" fill="#747688"/>
</svg>
