<svg width="20" height="17" viewBox="0 0 20 17" fill="none" xmlns="http://www.w3.org/2000/svg">
<path fill-rule="evenodd" clip-rule="evenodd" d="M7.1211e-07 2.5C7.1211e-07 1.39493 0.800001 0.5 1.78571 0.5H18.2143C19.2 0.5 20 1.396 20 2.5V5.72773C20.0001 5.86825 19.9671 6.00631 19.9044 6.12802C19.8417 6.24974 19.7515 6.35081 19.6429 6.42107C19.3167 6.63143 19.0457 6.93435 18.8573 7.29932C18.6689 7.6643 18.5697 8.07843 18.5697 8.5C18.5697 8.92158 18.6689 9.33571 18.8573 9.70068C19.0457 10.0656 19.3167 10.3686 19.6429 10.5789C19.7515 10.6492 19.8417 10.7503 19.9044 10.872C19.9671 10.9937 20.0001 11.1318 20 11.2723V14.5C20 15.604 19.2 16.5 18.2143 16.5H1.78571C1.31211 16.5 0.857911 16.2893 0.523024 15.9142C0.188138 15.5391 7.1211e-07 15.0304 7.1211e-07 14.5V11.2723C-0.000176289 11.1319 0.0326461 10.9939 0.0951698 10.8722C0.157693 10.7505 0.247716 10.6493 0.356191 10.5789C0.682387 10.3686 0.953328 10.0656 1.14172 9.70068C1.33011 9.33571 1.42931 8.92158 1.42931 8.5C1.42931 8.07843 1.33011 7.6643 1.14172 7.29932C0.953328 6.93435 0.682387 6.63143 0.356191 6.42107C0.247716 6.35067 0.157693 6.24954 0.0951698 6.12784C0.0326461 6.00614 -0.000176289 5.86815 7.1211e-07 5.72773V2.5ZM14.2857 1.3C14.4752 1.3 14.6568 1.38429 14.7908 1.53431C14.9247 1.68434 15 1.88783 15 2.1V2.9C15 3.11217 14.9247 3.31566 14.7908 3.46569C14.6568 3.61571 14.4752 3.7 14.2857 3.7C14.0963 3.7 13.9146 3.61571 13.7806 3.46569C13.6467 3.31566 13.5714 3.11217 13.5714 2.9V2.1C13.5714 1.88783 13.6467 1.68434 13.7806 1.53431C13.9146 1.38429 14.0963 1.3 14.2857 1.3ZM15 6.1C15 5.88783 14.9247 5.68434 14.7908 5.53432C14.6568 5.38429 14.4752 5.3 14.2857 5.3C14.0963 5.3 13.9146 5.38429 13.7806 5.53432C13.6467 5.68434 13.5714 5.88783 13.5714 6.1V6.9C13.5714 7.11217 13.6467 7.31566 13.7806 7.46569C13.9146 7.61571 14.0963 7.7 14.2857 7.7C14.4752 7.7 14.6568 7.61571 14.7908 7.46569C14.9247 7.31566 15 7.11217 15 6.9V6.1ZM14.2857 9.3C14.4752 9.3 14.6568 9.38429 14.7908 9.53432C14.9247 9.68434 15 9.88783 15 10.1V10.9C15 11.1122 14.9247 11.3157 14.7908 11.4657C14.6568 11.6157 14.4752 11.7 14.2857 11.7C14.0963 11.7 13.9146 11.6157 13.7806 11.4657C13.6467 11.3157 13.5714 11.1122 13.5714 10.9V10.1C13.5714 9.88783 13.6467 9.68434 13.7806 9.53432C13.9146 9.38429 14.0963 9.3 14.2857 9.3ZM15 14.1C15 13.8878 14.9247 13.6843 14.7908 13.5343C14.6568 13.3843 14.4752 13.3 14.2857 13.3C14.0963 13.3 13.9146 13.3843 13.7806 13.5343C13.6467 13.6843 13.5714 13.8878 13.5714 14.1V14.9C13.5714 15.1122 13.6467 15.3157 13.7806 15.4657C13.9146 15.6157 14.0963 15.7 14.2857 15.7C14.4752 15.7 14.6568 15.6157 14.7908 15.4657C14.9247 15.3157 15 15.1122 15 14.9V14.1ZM4.28572 8.5C4.28572 8.28783 4.36097 8.08434 4.49492 7.93432C4.62888 7.78429 4.81056 7.7 5 7.7H10C10.1894 7.7 10.3711 7.78429 10.5051 7.93432C10.639 8.08434 10.7143 8.28783 10.7143 8.5C10.7143 8.71217 10.639 8.91566 10.5051 9.06569C10.3711 9.21571 10.1894 9.3 10 9.3H5C4.81056 9.3 4.62888 9.21571 4.49492 9.06569C4.36097 8.91566 4.28572 8.71217 4.28572 8.5ZM5 10.9C4.81056 10.9 4.62888 10.9843 4.49492 11.1343C4.36097 11.2843 4.28572 11.4878 4.28572 11.7C4.28572 11.9122 4.36097 12.1157 4.49492 12.2657C4.62888 12.4157 4.81056 12.5 5 12.5H7.85714C8.04658 12.5 8.22826 12.4157 8.36222 12.2657C8.49617 12.1157 8.57143 11.9122 8.57143 11.7C8.57143 11.4878 8.49617 11.2843 8.36222 11.1343C8.22826 10.9843 8.04658 10.9 7.85714 10.9H5Z" fill="white"/>
</svg>
