<svg width="20" height="24" viewBox="0 0 20 24" fill="none" xmlns="http://www.w3.org/2000/svg">
<path fill-rule="evenodd" clip-rule="evenodd" d="M9.99638 0.75293C5.45911 0.75293 1.75431 4.46449 1.75431 9.001V12.0023C1.75431 14.3092 0.850603 16.2591 0.485372 16.9896C-0.24809 18.4595 0.860353 20.2444 2.50127 20.2444H6.32457C6.67255 21.9528 8.19197 23.2488 9.99938 23.2488C11.8068 23.2488 13.3262 21.9528 13.6742 20.2444H17.4975C19.1384 20.2444 20.2393 18.4565 19.5074 16.9896C19.1444 16.2621 18.2459 14.31 18.2459 12.0023V9.001C18.2459 4.46374 14.5336 0.75293 9.99638 0.75293ZM9.99638 2.24685C13.7162 2.24685 16.7505 5.28044 16.7505 9.001V12.0023C16.7505 14.6947 17.772 16.8711 18.168 17.6646C18.4304 18.191 18.0847 18.7505 17.4975 18.7505H2.50127C1.90955 18.7505 1.56232 18.1933 1.8263 17.6653C2.22153 16.8726 3.24823 14.6955 3.24823 12.0023V9.001C3.24823 5.27969 6.27582 2.24685 9.99638 2.24685ZM9.99638 3.74677C7.10153 3.74677 4.74815 6.1054 4.74815 9.001C4.74815 9.1999 4.82716 9.39066 4.96781 9.5313C5.10845 9.67195 5.29921 9.75096 5.49811 9.75096C5.69701 9.75096 5.88777 9.67195 6.02841 9.5313C6.16906 9.39066 6.24807 9.1999 6.24807 9.001C6.24459 8.50758 6.33913 8.01839 6.52621 7.5618C6.71329 7.10521 6.98918 6.69031 7.33788 6.3412C7.68658 5.99208 8.10114 5.71569 8.55751 5.52806C9.01387 5.34043 9.50296 5.2453 9.99638 5.2482C10.1955 5.2482 10.3864 5.1691 10.5272 5.02832C10.668 4.88753 10.7471 4.69659 10.7471 4.49749C10.7471 4.29838 10.668 4.10744 10.5272 3.96665C10.3864 3.82587 10.1955 3.74677 9.99638 3.74677ZM5.49961 11.2494C5.30071 11.2494 5.10995 11.3284 4.96931 11.469C4.82866 11.6097 4.74965 11.8004 4.74965 11.9993C4.74965 12.1982 4.82866 12.389 4.96931 12.5296C5.10995 12.6703 5.30071 12.7493 5.49961 12.7493C5.69851 12.7493 5.88927 12.6703 6.02991 12.5296C6.17056 12.389 6.24957 12.1982 6.24957 11.9993C6.24957 11.8004 6.17056 11.6097 6.02991 11.469C5.88927 11.3284 5.69851 11.2494 5.49961 11.2494ZM7.88449 20.2444H12.1143C11.9628 20.6845 11.6774 21.0661 11.2982 21.3359C10.9189 21.6057 10.4648 21.7501 9.99938 21.7488C9.53397 21.7501 9.07982 21.6057 8.70058 21.3359C8.32133 21.0661 8.03597 20.6845 7.88449 20.2444Z" fill="black"/>
</svg>
