<svg width="20" height="20" viewBox="0 0 20 20" fill="none" xmlns="http://www.w3.org/2000/svg">
<path d="M5.9165 6.6665C5.9165 7.08072 6.25229 7.4165 6.6665 7.4165C7.08072 7.4165 7.4165 7.08072 7.4165 6.6665H5.9165ZM9.58317 4.1665V3.4165V4.1665ZM13.3332 6.6665H12.5832C12.5832 6.68067 12.5836 6.69483 12.5844 6.70897L13.3332 6.6665ZM11.6665 9.1665L11.4177 8.45897C11.3941 8.46729 11.3708 8.47679 11.3481 8.48744L11.6665 9.1665ZM9.25051 12.5317C9.26812 12.9456 9.61787 13.2668 10.0317 13.2492C10.4456 13.2316 10.7668 12.8818 10.7492 12.468L9.25051 12.5317ZM10.7498 15.8332C10.7498 15.419 10.4141 15.0832 9.99984 15.0832C9.58562 15.0832 9.24984 15.419 9.24984 15.8332H10.7498ZM9.24984 15.8415C9.24984 16.2557 9.58562 16.5915 9.99984 16.5915C10.4141 16.5915 10.7498 16.2557 10.7498 15.8415H9.24984ZM7.4165 6.6665C7.4165 6.24296 7.61185 5.80848 8.00887 5.46818L7.03268 4.32929C6.33574 4.92668 5.9165 5.76396 5.9165 6.6665H7.4165ZM8.00887 5.46818C8.40946 5.12482 8.97438 4.9165 9.58317 4.9165V3.4165C8.64486 3.4165 7.72606 3.73497 7.03268 4.32929L8.00887 5.46818ZM9.58317 4.9165H10.4165V3.4165H9.58317V4.9165ZM10.4165 4.9165C11.0253 4.9165 11.5902 5.12482 11.9908 5.46818L12.967 4.32929C12.2736 3.73497 11.3548 3.4165 10.4165 3.4165V4.9165ZM11.9908 5.46818C12.3878 5.80848 12.5832 6.24296 12.5832 6.6665H14.0832C14.0832 5.76396 13.6639 4.92668 12.967 4.32929L11.9908 5.46818ZM12.5844 6.70897C12.6059 7.0877 12.5037 7.46316 12.2933 7.77879L13.5413 8.61084C13.9321 8.02467 14.1219 7.32739 14.082 6.62404L12.5844 6.70897ZM12.2933 7.77879C12.0828 8.09442 11.7756 8.33314 11.4177 8.45897L11.9153 9.87404C12.5799 9.64034 13.1506 9.19701 13.5413 8.61084L12.2933 7.77879ZM11.3481 8.48744C10.6564 8.81175 10.106 9.40436 9.74488 10.1267L11.0865 10.7975C11.3266 10.3174 11.6541 10.0006 11.9849 9.84557L11.3481 8.48744ZM9.74488 10.1267C9.38319 10.8501 9.21484 11.6929 9.25051 12.5317L10.7492 12.468C10.7235 11.864 10.847 11.2765 11.0865 10.7975L9.74488 10.1267ZM9.24984 15.8332V15.8415H10.7498V15.8332H9.24984Z" fill="#55BBC5"/>
</svg>
