<svg width="20" height="20" viewBox="0 0 20 20" fill="none" xmlns="http://www.w3.org/2000/svg">
<g clip-path="url(#clip0_45_2969)">
<path d="M9.9998 0.799805C4.92352 0.799805 0.799805 4.92352 0.799805 9.9998C0.799805 15.0761 4.92352 19.1998 9.9998 19.1998C15.0761 19.1998 19.1998 15.0761 19.1998 9.9998C19.1998 4.92352 15.0761 0.799805 9.9998 0.799805ZM9.9998 1.5998C14.6437 1.5998 18.3998 5.35588 18.3998 9.9998C18.3998 14.6437 14.6437 18.3998 9.9998 18.3998C5.35588 18.3998 1.5998 14.6437 1.5998 9.9998C1.5998 5.35588 5.35588 1.5998 9.9998 1.5998ZM9.9998 4.3998C9.68155 4.3998 9.37632 4.52623 9.15128 4.75128C8.92623 4.97632 8.7998 5.28155 8.7998 5.5998C8.7998 5.91806 8.92623 6.22329 9.15128 6.44833C9.37632 6.67338 9.68155 6.7998 9.9998 6.7998C10.3181 6.7998 10.6233 6.67338 10.8483 6.44833C11.0734 6.22329 11.1998 5.91806 11.1998 5.5998C11.1998 5.28155 11.0734 4.97632 10.8483 4.75128C10.6233 4.52623 10.3181 4.3998 9.9998 4.3998ZM8.3998 8.3998V9.19981H8.7998H9.19981V14.3998H8.7998H8.3998V15.1998H8.7998H9.19981H10.7998H11.1998H11.5998V14.3998H11.1998H10.7998V8.3998H10.3998H8.7998H8.3998Z" fill="black"/>
</g>
<defs>
<clipPath id="clip0_45_2969">
<rect width="20" height="20" fill="white"/>
</clipPath>
</defs>
</svg>
