<svg width="30" height="30" viewBox="0 0 30 30" fill="none" xmlns="http://www.w3.org/2000/svg">
<path d="M11.241 16.0235C10.7638 15.7454 10.1516 15.9068 9.87349 16.384C9.59543 16.8612 9.75684 17.4734 10.234 17.7515L11.241 16.0235ZM18.7715 22.7265C19.2487 23.0046 19.8609 22.8432 20.139 22.366C20.4171 21.8888 20.2557 21.2766 19.7785 20.9985L18.7715 22.7265ZM19.7665 9.00119C20.2435 8.72282 20.4046 8.11047 20.1262 7.63347C19.8478 7.15647 19.2355 6.99545 18.7585 7.27381L19.7665 9.00119ZM10.2335 12.2488C9.75647 12.5272 9.59545 13.1395 9.87381 13.6165C10.1522 14.0935 10.7645 14.2546 11.2415 13.9762L10.2335 12.2488ZM25.25 6.25C25.25 7.76878 24.0188 9 22.5 9V11C25.1234 11 27.25 8.87335 27.25 6.25H25.25ZM22.5 9C20.9812 9 19.75 7.76878 19.75 6.25H17.75C17.75 8.87335 19.8766 11 22.5 11V9ZM19.75 6.25C19.75 4.73122 20.9812 3.5 22.5 3.5V1.5C19.8766 1.5 17.75 3.62665 17.75 6.25H19.75ZM22.5 3.5C24.0188 3.5 25.25 4.73122 25.25 6.25H27.25C27.25 3.62665 25.1234 1.5 22.5 1.5V3.5ZM10.25 15C10.25 16.5188 9.01878 17.75 7.5 17.75V19.75C10.1234 19.75 12.25 17.6234 12.25 15H10.25ZM7.5 17.75C5.98122 17.75 4.75 16.5188 4.75 15H2.75C2.75 17.6234 4.87665 19.75 7.5 19.75V17.75ZM4.75 15C4.75 13.4812 5.98122 12.25 7.5 12.25V10.25C4.87665 10.25 2.75 12.3766 2.75 15H4.75ZM7.5 12.25C9.01878 12.25 10.25 13.4812 10.25 15H12.25C12.25 12.3766 10.1234 10.25 7.5 10.25V12.25ZM25.25 23.75C25.25 25.2688 24.0188 26.5 22.5 26.5V28.5C25.1234 28.5 27.25 26.3734 27.25 23.75H25.25ZM22.5 26.5C20.9812 26.5 19.75 25.2688 19.75 23.75H17.75C17.75 26.3734 19.8766 28.5 22.5 28.5V26.5ZM19.75 23.75C19.75 22.2312 20.9812 21 22.5 21V19C19.8766 19 17.75 21.1266 17.75 23.75H19.75ZM22.5 21C24.0188 21 25.25 22.2312 25.25 23.75H27.25C27.25 21.1266 25.1234 19 22.5 19V21ZM10.234 17.7515L18.7715 22.7265L19.7785 20.9985L11.241 16.0235L10.234 17.7515ZM18.7585 7.27381L10.2335 12.2488L11.2415 13.9762L19.7665 9.00119L18.7585 7.27381Z" fill="#101828"/>
</svg>
