<svg width="26" height="20" viewBox="0 0 26 20" fill="none" xmlns="http://www.w3.org/2000/svg">
<path fill-rule="evenodd" clip-rule="evenodd" d="M0.500001 2.5C0.500001 1.11867 1.5 0 2.73214 0H23.2679C24.5 0 25.5 1.12 25.5 2.5V6.53467C25.5001 6.71031 25.4589 6.88289 25.3805 7.03503C25.3022 7.18717 25.1894 7.31351 25.0536 7.40133C24.6458 7.66429 24.3071 8.04294 24.0717 8.49916C23.8362 8.95537 23.7122 9.47303 23.7122 10C23.7122 10.527 23.8362 11.0446 24.0717 11.5008C24.3071 11.9571 24.6458 12.3357 25.0536 12.5987C25.1894 12.6865 25.3022 12.8128 25.3805 12.965C25.4589 13.1171 25.5001 13.2897 25.5 13.4653V17.5C25.5 18.88 24.5 20 23.2679 20H2.73214C2.14014 20 1.57239 19.7366 1.15378 19.2678C0.735172 18.7989 0.500001 18.163 0.500001 17.5V13.4653C0.49978 13.2898 0.540808 13.1173 0.618962 12.9652C0.697117 12.8131 0.809645 12.6867 0.945239 12.5987C1.35298 12.3357 1.69166 11.9571 1.92715 11.5008C2.16264 11.0446 2.28663 10.527 2.28663 10C2.28663 9.47303 2.16264 8.95537 1.92715 8.49916C1.69166 8.04294 1.35298 7.66429 0.945239 7.40133C0.809645 7.31334 0.697117 7.18693 0.618962 7.0348C0.540808 6.88267 0.49978 6.71018 0.500001 6.53467V2.5ZM18.3571 1C18.5939 1 18.821 1.10536 18.9885 1.29289C19.1559 1.48043 19.25 1.73478 19.25 2V3C19.25 3.26522 19.1559 3.51957 18.9885 3.70711C18.821 3.89464 18.5939 4 18.3571 4C18.1203 4 17.8932 3.89464 17.7258 3.70711C17.5584 3.51957 17.4643 3.26522 17.4643 3V2C17.4643 1.73478 17.5584 1.48043 17.7258 1.29289C17.8932 1.10536 18.1203 1 18.3571 1ZM19.25 7C19.25 6.73478 19.1559 6.48043 18.9885 6.29289C18.821 6.10536 18.5939 6 18.3571 6C18.1203 6 17.8932 6.10536 17.7258 6.29289C17.5584 6.48043 17.4643 6.73478 17.4643 7V8C17.4643 8.26522 17.5584 8.51957 17.7258 8.70711C17.8932 8.89464 18.1203 9 18.3571 9C18.5939 9 18.821 8.89464 18.9885 8.70711C19.1559 8.51957 19.25 8.26522 19.25 8V7ZM18.3571 11C18.5939 11 18.821 11.1054 18.9885 11.2929C19.1559 11.4804 19.25 11.7348 19.25 12V13C19.25 13.2652 19.1559 13.5196 18.9885 13.7071C18.821 13.8946 18.5939 14 18.3571 14C18.1203 14 17.8932 13.8946 17.7258 13.7071C17.5584 13.5196 17.4643 13.2652 17.4643 13V12C17.4643 11.7348 17.5584 11.4804 17.7258 11.2929C17.8932 11.1054 18.1203 11 18.3571 11ZM19.25 17C19.25 16.7348 19.1559 16.4804 18.9885 16.2929C18.821 16.1054 18.5939 16 18.3571 16C18.1203 16 17.8932 16.1054 17.7258 16.2929C17.5584 16.4804 17.4643 16.7348 17.4643 17V18C17.4643 18.2652 17.5584 18.5196 17.7258 18.7071C17.8932 18.8946 18.1203 19 18.3571 19C18.5939 19 18.821 18.8946 18.9885 18.7071C19.1559 18.5196 19.25 18.2652 19.25 18V17ZM5.85714 10C5.85714 9.73478 5.95121 9.48043 6.11866 9.29289C6.2861 9.10536 6.5132 9 6.75 9H13C13.2368 9 13.4639 9.10536 13.6313 9.29289C13.7988 9.48043 13.8929 9.73478 13.8929 10C13.8929 10.2652 13.7988 10.5196 13.6313 10.7071C13.4639 10.8946 13.2368 11 13 11H6.75C6.5132 11 6.2861 10.8946 6.11866 10.7071C5.95121 10.5196 5.85714 10.2652 5.85714 10ZM6.75 13C6.5132 13 6.2861 13.1054 6.11866 13.2929C5.95121 13.4804 5.85714 13.7348 5.85714 14C5.85714 14.2652 5.95121 14.5196 6.11866 14.7071C6.2861 14.8946 6.5132 15 6.75 15H10.3214C10.5582 15 10.7853 14.8946 10.9528 14.7071C11.1202 14.5196 11.2143 14.2652 11.2143 14C11.2143 13.7348 11.1202 13.4804 10.9528 13.2929C10.7853 13.1054 10.5582 13 10.3214 13H6.75Z" fill="#EFBA89"/>
</svg>
