<svg width="16" height="12" viewBox="0 0 16 12" fill="none" xmlns="http://www.w3.org/2000/svg">
<path fill-rule="evenodd" clip-rule="evenodd" d="M0.500001 1.5C0.500001 0.6712 1.1 0 1.83929 0H14.1607C14.9 0 15.5 0.672 15.5 1.5V3.9208C15.5001 4.02619 15.4753 4.12973 15.4283 4.22102C15.3813 4.3123 15.3136 4.38811 15.2321 4.4408C14.9875 4.59857 14.7843 4.82576 14.643 5.09949C14.5017 5.37322 14.4273 5.68382 14.4273 6C14.4273 6.31618 14.5017 6.62678 14.643 6.90051C14.7843 7.17424 14.9875 7.40143 15.2321 7.5592C15.3136 7.61189 15.3813 7.6877 15.4283 7.77898C15.4753 7.87027 15.5001 7.97381 15.5 8.0792V10.5C15.5 11.328 14.9 12 14.1607 12H1.83929C1.48409 12 1.14343 11.842 0.892268 11.5607C0.641103 11.2794 0.500001 10.8978 0.500001 10.5V8.0792C0.499868 7.97389 0.524485 7.8704 0.571377 7.77912C0.61827 7.68784 0.685787 7.612 0.767143 7.5592C1.01179 7.40143 1.215 7.17424 1.35629 6.90051C1.49759 6.62678 1.57198 6.31618 1.57198 6C1.57198 5.68382 1.49759 5.37322 1.35629 5.09949C1.215 4.82576 1.01179 4.59857 0.767143 4.4408C0.685787 4.388 0.61827 4.31216 0.571377 4.22088C0.524485 4.1296 0.499868 4.02611 0.500001 3.9208V1.5ZM11.2143 0.6C11.3564 0.6 11.4926 0.663214 11.5931 0.775736C11.6936 0.888258 11.75 1.04087 11.75 1.2V1.8C11.75 1.95913 11.6936 2.11174 11.5931 2.22426C11.4926 2.33679 11.3564 2.4 11.2143 2.4C11.0722 2.4 10.9359 2.33679 10.8355 2.22426C10.735 2.11174 10.6786 1.95913 10.6786 1.8V1.2C10.6786 1.04087 10.735 0.888258 10.8355 0.775736C10.9359 0.663214 11.0722 0.6 11.2143 0.6ZM11.75 4.2C11.75 4.04087 11.6936 3.88826 11.5931 3.77574C11.4926 3.66321 11.3564 3.6 11.2143 3.6C11.0722 3.6 10.9359 3.66321 10.8355 3.77574C10.735 3.88826 10.6786 4.04087 10.6786 4.2V4.8C10.6786 4.95913 10.735 5.11174 10.8355 5.22426C10.9359 5.33679 11.0722 5.4 11.2143 5.4C11.3564 5.4 11.4926 5.33679 11.5931 5.22426C11.6936 5.11174 11.75 4.95913 11.75 4.8V4.2ZM11.2143 6.6C11.3564 6.6 11.4926 6.66321 11.5931 6.77574C11.6936 6.88826 11.75 7.04087 11.75 7.2V7.8C11.75 7.95913 11.6936 8.11174 11.5931 8.22426C11.4926 8.33679 11.3564 8.4 11.2143 8.4C11.0722 8.4 10.9359 8.33679 10.8355 8.22426C10.735 8.11174 10.6786 7.95913 10.6786 7.8V7.2C10.6786 7.04087 10.735 6.88826 10.8355 6.77574C10.9359 6.66321 11.0722 6.6 11.2143 6.6ZM11.75 10.2C11.75 10.0409 11.6936 9.88826 11.5931 9.77574C11.4926 9.66321 11.3564 9.6 11.2143 9.6C11.0722 9.6 10.9359 9.66321 10.8355 9.77574C10.735 9.88826 10.6786 10.0409 10.6786 10.2V10.8C10.6786 10.9591 10.735 11.1117 10.8355 11.2243C10.9359 11.3368 11.0722 11.4 11.2143 11.4C11.3564 11.4 11.4926 11.3368 11.5931 11.2243C11.6936 11.1117 11.75 10.9591 11.75 10.8V10.2ZM3.71429 6C3.71429 5.84087 3.77073 5.68826 3.87119 5.57574C3.97166 5.46321 4.10792 5.4 4.25 5.4H8C8.14208 5.4 8.27834 5.46321 8.37881 5.57574C8.47927 5.68826 8.53572 5.84087 8.53572 6C8.53572 6.15913 8.47927 6.31174 8.37881 6.42426C8.27834 6.53679 8.14208 6.6 8 6.6H4.25C4.10792 6.6 3.97166 6.53679 3.87119 6.42426C3.77073 6.31174 3.71429 6.15913 3.71429 6ZM4.25 7.8C4.10792 7.8 3.97166 7.86321 3.87119 7.97574C3.77073 8.08826 3.71429 8.24087 3.71429 8.4C3.71429 8.55913 3.77073 8.71174 3.87119 8.82426C3.97166 8.93679 4.10792 9 4.25 9H6.39286C6.53494 9 6.6712 8.93679 6.77167 8.82426C6.87213 8.71174 6.92857 8.55913 6.92857 8.4C6.92857 8.24087 6.87213 8.08826 6.77167 7.97574C6.6712 7.86321 6.53494 7.8 6.39286 7.8H4.25Z" fill="#F79009"/>
</svg>
